<svg xmlns="http://www.w3.org/2000/svg" xml:space="preserve" width="3in" height="3in" style="shape-rendering:geometricPrecision; text-rendering:geometricPrecision; image-rendering:optimizeQuality; fill-rule:evenodd; clip-rule:evenodd" viewBox="0 0 3 3" xmlns:xlink="http://www.w3.org/1999/xlink">
 <defs>
  <style type="text/css">
   
    .fil1 {fill:#250E1E}
    .fil0 {fill:#AC6664}
    .fil2 {fill:#EEF1F2}
   
  </style>
 </defs>
 <g id="Layer_x0020_1">
  <metadata id="CorelCorpID_0Corel-Layer"></metadata>
  <circle class="fil0" cx="1.5" cy="1.5" r="1.5" id="id_123" style="fill: rgb(17, 23, 46);"></circle>
  <path class="fil1" d="M1.58366 1.47716c-0.00148425,0 -0.003,-0.000125984 -0.00449606,-0.000374016 -0.00905512,-0.00155512 -0.0166693,-0.00765354 -0.0201693,-0.0161535l-0.0437362 -0.106516 -0.105461 -3.93701e-006c-0.0107795,0 -0.0205,-0.00648819 -0.024626,-0.0164449 -0.00412598,-0.00996063 -0.0018622,-0.0214173 0.00574803,-0.0290551l0.615476 -0.616894c0.0209843,-0.0210276 0.0498465,-0.0330709 0.0791969,-0.0330709 0.0275551,0 0.0537205,0.010374 0.0736811,0.0292087 0.0430276,0.0405984 0.0451969,0.107736 0.00491732,0.152835l-0.560614 0.627575c-0.00512598,0.0057126 -0.0123858,0.0088937 -0.0199173,0.0088937zm-0.109598 -0.176382l0.0590551 0c0.0108031,0 0.0205551,0.0065315 0.0246654,0.0165315l0.0343622 0.0836535 0.53224 -0.595811c0.0208898,-0.0233898 0.0201102,-0.057874 -0.00174803,-0.0785157 -0.0210394,-0.0198622 -0.0574409,-0.0183622 -0.0785,0.00276772l-0.570075 0.571374z" id="id_124" style="fill: rgb(218, 222, 240);"></path>
  <path class="fil1" d="M1.57945 2.13461c-0.0224724,0 -0.0407677,0.0182953 -0.0407677,0.0407795 0,0.0224803 0.0182795,0.0407677 0.0407677,0.0407677 0.0224882,0 0.0407677,-0.0182795 0.0407677,-0.0407677 0,-0.0224882 -0.0182953,-0.0407795 -0.0407677,-0.0407795z" id="id_125" style="fill: rgb(240, 243, 255);"></path>
  <path class="fil2" d="M1.57945 2.26948c-0.051874,0 -0.0940827,-0.0422087 -0.0940827,-0.0940827 0,-0.0518898 0.0422087,-0.0941024 0.0940827,-0.0941024 0.051874,0 0.0940866,0.0422126 0.0940866,0.0941024 0,0.051878 -0.0422126,0.0940827 -0.0940866,0.0940827z" id="id_126"></path>
  <path class="fil1" d="M0.881571 2.13461c-0.0224724,0 -0.0407677,0.0182953 -0.0407677,0.0407795 0,0.0224803 0.0182953,0.0407677 0.0407677,0.0407677 0.0224724,0 0.0407638,-0.0182795 0.0407638,-0.0407677 0,-0.0224882 -0.0182913,-0.0407795 -0.0407638,-0.0407795z" id="id_127" style="fill: rgb(226, 229, 245);"></path>
  <path class="fil2" d="M0.881571 2.26948c-0.0518898,0 -0.0941024,-0.0422087 -0.0941024,-0.0940827 0,-0.0518898 0.0422126,-0.0941024 0.0941024,-0.0941024 0.051874,0 0.0940827,0.0422126 0.0940827,0.0941024 1.1811e-005,0.051878 -0.0422087,0.0940827 -0.0940827,0.0940827z" id="id_128"></path>
  <path class="fil1" d="M1.41279 2.20205l-0.364555 0c-0.0147323,0 -0.0266654,-0.0119331 -0.0266654,-0.0266693 0,-0.0147362 0.0119331,-0.0266654 0.0266654,-0.0266654l0.364555 0c0.0147362,0 0.0266693,0.0119291 0.0266693,0.0266654 0,0.0147362 -0.0119449,0.0266693 -0.0266693,0.0266693z" id="id_129" style="fill: rgb(247, 248, 250);"></path>
  <path class="fil1" d="M2.07256 0.929913c-0.00896063,0 -0.0176811,-0.0045 -0.0227362,-0.012685l-0.0914606 -0.14839c-0.00772047,-0.0125394 -0.00382283,-0.0289606 0.00870866,-0.0366929 0.0125394,-0.00772047 0.0289606,-0.00383071 0.0367087,0.00870866l0.0914606 0.14839c0.00772047,0.0125433 0.00382283,0.0289606 -0.00870866,0.0366929 -0.00437402,0.00270079 -0.00920866,0.00397638 -0.0139724,0.00397638z" id="id_130" style="fill: rgb(245, 246, 250);"></path>
  <path class="fil1" d="M1.94288 1.07508c-0.00896063,0 -0.0176811,-0.0045 -0.0227362,-0.0126811l-0.0972362 -0.157783c-0.00773622,-0.0125394 -0.0038189,-0.0289606 0.00870866,-0.0366929 0.0125591,-0.00773622 0.0289724,-0.0038189 0.0367087,0.00870866l0.0972362 0.157783c0.00773622,0.0125394 0.00382283,0.0289606 -0.00870866,0.0366929 -0.00437402,0.0026811 -0.00920866,0.00397244 -0.0139724,0.00397244z" id="id_131" style="fill: rgb(237, 239, 247);"></path>
  <path class="fil1" d="M1.81322 1.22024c-0.00896063,0 -0.0176811,-0.0045 -0.0227362,-0.012685l-0.103031 -0.167181c-0.00772047,-0.0125394 -0.0038189,-0.0289606 0.00870866,-0.0366929 0.0125433,-0.00773622 0.0289606,-0.00382283 0.0367087,0.00870866l0.103031 0.167181c0.00772047,0.0125433 0.00382283,0.0289606 -0.00870866,0.0366929 -0.00437795,0.00270079 -0.00919685,0.00397638 -0.0139724,0.00397638z" id="id_132" style="fill: rgb(247, 248, 252);"></path>
  <path class="fil1" d="M1.68354 1.36539c-0.00896063,0 -0.0176811,-0.00449606 -0.0227362,-0.0126811l-0.108803 -0.176559c-0.00772441,-0.0125394 -0.00382283,-0.0289606 0.00872441,-0.0366929 0.0124961,-0.00772047 0.0289449,-0.00383071 0.0366929,0.00870866l0.108803 0.176559c0.00772047,0.0125394 0.00382283,0.0289606 -0.00872441,0.0366929 -0.0043622,0.00269291 -0.0091811,0.00397244 -0.0139567,0.00397244z" id="id_133" style="fill: rgb(233, 235, 245);"></path>
  <path class="fil1" d="M2.15926 1.58999c-0.0147362,0 -0.0266654,-0.0119331 -0.0266654,-0.0266693l0 -0.763898c0,-0.0147323 0.0119291,-0.0266654 0.0266654,-0.0266654 0.0147362,0 0.0266654,0.0119331 0.0266654,0.0266654l0 0.763898c0,0.0147402 -0.0119449,0.0266693 -0.0266654,0.0266693z" id="id_134" style="fill: rgb(240, 242, 250);"></path>
  <path class="fil1" d="M2.15926 1.58999c-0.0775945,0 -0.140724,0.0631378 -0.140724,0.140732 0,0.0775984 0.063122,0.140728 0.140724,0.140728 0.0776024,0 0.140736,-0.063126 0.140736,-0.140728 0,-0.0775984 -0.0631378,-0.140732 -0.140736,-0.140732z" id="id_135" style="fill: rgb(230, 231, 237);"></path>
  <path class="fil2" d="M2.15926 1.92478c-0.107004,0 -0.194059,-0.0870591 -0.194059,-0.194063 0,-0.107012 0.0870551,-0.194067 0.194059,-0.194067 0.107016,0 0.194071,0.0870551 0.194071,0.194067 -1.5748e-005,0.107004 -0.0870551,0.194063 -0.194071,0.194063z" id="id_136"></path>
  <path class="fil1" d="M1.64511 1.94389l-0.829213 0c-0.0147362,0 -0.0266693,-0.0119291 -0.0266693,-0.0266654l0 -0.168929c0,-0.0147362 0.0119331,-0.0266693 0.0266693,-0.0266693l0.207476 0 0 -0.394181c0,-0.0147362 0.0119291,-0.0266654 0.0266654,-0.0266654l0.483087 -7.87402e-006c0.0108031,0 0.0205551,0.0065315 0.0246654,0.0165315l0.111984 0.272669c0.0013189,0.00320866 0.002,0.00664961 0.002,0.010126l0 0.317114c0,0.014748 -0.0119252,0.0266772 -0.0266654,0.0266772zm-0.802547 -0.0533307l0.775882 0 0 -0.285185 -0.103209 -0.251268 -0.438547 0 0 0.394181c0,0.0147362 -0.0119291,0.0266693 -0.0266654,0.0266693l-0.207476 3.93701e-006 0 0.115598 1.5748e-005 0z" id="id_137" style="fill: rgb(221, 224, 235);"></path>
  <path class="fil1" d="M1.5361 1.8372l-0.391209 0c-0.0147362,0 -0.0266654,-0.0119331 -0.0266654,-0.0266654l0 -0.403075c0,-0.0147362 0.0119291,-0.0266693 0.0266654,-0.0266693l0.305268 0c0.0107756,0 0.0205157,0.0065 0.0246417,0.0164567l0.0859409 0.207449c0.00135039,0.00323228 0.00202756,0.00670866 0.00202756,0.0102087l0 0.195614c0,0.014748 -0.0119449,0.0266811 -0.0266693,0.0266811zm-0.364559 -0.0533346l0.337894 0 0 -0.163638 -0.0770984 -0.186087 -0.26078 -3.93701e-006 0 0.349728 -1.5748e-005 0z" id="id_138" style="fill: rgb(226, 228, 240);"></path>
  <path class="fil1" d="M1.5361 1.64159l-0.391209 0c-0.0147362,0 -0.0266654,-0.0119291 -0.0266654,-0.0266654 0,-0.0147362 0.0119291,-0.0266654 0.0266654,-0.0266654l0.391209 0c0.0147362,0 0.0266693,0.0119291 0.0266693,0.0266654 0,0.0147362 -0.0119449,0.0266654 -0.0266693,0.0266654z" id="id_139" style="fill: rgb(235, 236, 240);"></path>
  <path class="fil1" d="M1.29752 1.64159c-0.0147362,0 -0.0266654,-0.0119291 -0.0266654,-0.0266654l0 -0.207461c0,-0.0147362 0.0119291,-0.0266693 0.0266654,-0.0266693 0.0147362,0 0.0266654,0.0119331 0.0266654,0.0266693l0 0.207461c0,0.0147362 -0.0119409,0.0266654 -0.0266654,0.0266654z" id="id_140" style="fill: rgb(218, 221, 232);"></path>
  <path class="fil1" d="M1.30642 1.71719l-0.0770551 0c-0.0147362,0 -0.0266654,-0.0119331 -0.0266654,-0.0266693 0,-0.0147323 0.0119291,-0.0266654 0.0266654,-0.0266654l0.0770551 0c0.0147362,0 0.0266693,0.0119331 0.0266693,0.0266654 0,0.0147362 -0.0119449,0.0266693 -0.0266693,0.0266693z" id="id_141" style="fill: rgb(206, 208, 219);"></path>
  <path class="fil1" d="M1.50762 2.06277l-0.0829803 0c-0.0147323,0 -0.0266654,-0.0119291 -0.0266654,-0.0266654l0 -0.118878c0,-0.0147362 0.0119331,-0.0266654 0.0266654,-0.0266654l0.0829803 0c0.0147323,0 0.0266654,0.0119291 0.0266654,0.0266654l0 0.118878c0,0.0147205 -0.0119488,0.0266654 -0.0266654,0.0266654zm-0.056311 -0.0533346l0.0296417 0 0 -0.0655433 -0.0296417 0 0 0.0655433z" id="id_142" style="fill: rgb(221, 225, 240);"></path>
  <path class="fil1" d="M1.03637 2.06277l-0.0829882 0c-0.0147362,0 -0.0266654,-0.0119291 -0.0266654,-0.0266654l0 -0.118878c0,-0.0147362 0.0119291,-0.0266654 0.0266654,-0.0266654l0.0829882 0c0.0147362,0 0.0266654,0.0119291 0.0266654,0.0266654l0 0.118878c0,0.0147205 -0.0119291,0.0266654 -0.0266654,0.0266654zm-0.0563189 -0.0533346l0.0296535 0 0 -0.0655433 -0.0296535 0 0 0.0655433z" id="id_143" style="fill: rgb(232, 235, 247);"></path>
  <path class="fil1" d="M1.64841 2.34136l-0.83578 0c-0.0915157,0 -0.165961,-0.0744488 -0.165961,-0.165961 0,-0.0915118 0.0744449,-0.165961 0.165961,-0.165961l0.83578 0c0.0915118,0 0.165961,0.0744488 0.165961,0.165961 0,0.0915118 -0.0744606,0.165961 -0.165961,0.165961zm-0.835795 -0.278587c-0.0621142,0 -0.112626,0.0505315 -0.112626,0.112626 0,0.0620945 0.0505276,0.112626 0.112626,0.112626l0.835783 0c0.0621102,0 0.112626,-0.0505315 0.112626,-0.112626 0,-0.0620945 -0.0505315,-0.112626 -0.112626,-0.112626l-0.835783 0z" id="id_144" style="fill: rgb(242, 243, 247);"></path>
 </g>
</svg>